# xmcd
#
# Track frame offsets:
#	150
#	10077
#	55075
#	86341
#	104663
#	124672
#
# Disc length: 1991 seconds
#
# Revision: 1
# Processed by: cddbd v1.5.2PL0 Copyright (c) Steve Scherf et al.
# Submitted via: audiograbber 1.83.01
#
DISCID=4107c506
DTITLE=Grateful Dead - 80-08-29 The Spectrum, Philadelphia PA
DYEAR=1900
DGENRE=
TTITLE0=Space
TTITLE1=Wharf Rat
TTITLE2=GDTRFB
TTITLE3=Around and Around
TTITLE4=Johnny B Goode
TTITLE5=US Blues
EXTD=
EXTT0=
EXTT1=
EXTT2=
EXTT3=
EXTT4=
EXTT5=
PLAYORDER=
